<?xml version="1.0" standalone="no"?>
<!DOCTYPE svg PUBLIC "-//W3C//DTD SVG 20010904//EN"
 "http://www.w3.org/TR/2001/REC-SVG-20010904/DTD/svg10.dtd">
<svg version="1.0" xmlns="http://www.w3.org/2000/svg"
 width="638.000000pt" height="980.000000pt" viewBox="0 0 638.000000 980.000000"
 preserveAspectRatio="xMidYMid meet">
<metadata>
Created by potrace 1.15, written by Peter Selinger 2001-2017
</metadata>
<g transform="translate(0.000000,980.000000) scale(0.100000,-0.100000)"
fill="#000000" stroke="none">
<path d="M2990 9794 c-19 -2 -84 -9 -145 -15 -60 -6 -171 -24 -246 -39 -1255
-258 -2250 -1301 -2519 -2640 -49 -244 -61 -359 -67 -638 -7 -356 16 -586 98
-945 291 -1286 1244 -3073 2637 -4947 163 -219 399 -528 427 -558 30 -33 866
1104 1317 1793 1130 1727 1767 3178 1869 4258 15 167 7 601 -15 762 -162 1176
-827 2152 -1806 2649 -421 214 -819 312 -1295 321 -121 2 -236 1 -255 -1z
m444 -2159 c595 -150 906 -819 637 -1370 -168 -343 -502 -554 -877 -555 -322
0 -614 151 -807 417 -55 75 -123 226 -149 329 -31 124 -31 352 0 466 109 400
424 682 824 738 99 14 264 3 372 -25z"/>
</g>
</svg>
