<?xml version="1.0" standalone="no"?>
<!DOCTYPE svg PUBLIC "-//W3C//DTD SVG 20010904//EN"
 "http://www.w3.org/TR/2001/REC-SVG-20010904/DTD/svg10.dtd">
<svg version="1.0" xmlns="http://www.w3.org/2000/svg"
 width="225.000000pt" height="225.000000pt" viewBox="0 0 225.000000 225.000000"
 preserveAspectRatio="xMidYMid meet">
<metadata>
Created by potrace 1.15, written by Peter Selinger 2001-2017
</metadata>
<g transform="translate(0.000000,225.000000) scale(0.100000,-0.100000)"
fill="#00FF00" stroke="none">
<path d="M975 2184 c-116 -25 -228 -71 -303 -126 -30 -23 -50 -44 -46 -50 5
-7 2 -8 -5 -3 -7 4 -22 -2 -37 -16 -25 -23 -33 -46 -12 -33 7 4 8 3 4 -5 -4
-6 -11 -9 -16 -6 -16 10 -83 -80 -126 -170 -58 -122 -79 -228 -71 -365 7 -115
33 -239 73 -346 14 -38 35 -95 46 -126 12 -31 26 -54 31 -51 6 3 7 1 3 -5 -13
-21 166 -348 185 -336 5 3 7 -1 4 -8 -8 -22 176 -257 314 -401 l75 -77 48 47
c26 25 45 50 42 55 -3 5 -2 7 3 6 18 -6 196 209 187 224 -4 6 -2 8 3 5 6 -4
16 0 23 8 7 8 9 15 4 15 -5 0 -3 4 5 9 13 8 13 12 0 28 -12 16 -12 17 2 6 13
-11 19 -10 30 5 39 47 59 84 53 94 -4 6 -3 8 3 5 13 -8 75 91 67 105 -5 7 -2
8 6 3 10 -6 12 -4 7 9 -4 9 -3 15 1 12 12 -7 74 123 66 136 -5 7 -2 8 6 3 10
-6 12 -4 7 9 -4 9 -3 15 2 12 14 -9 94 198 131 339 46 173 50 296 15 441 -20
81 -85 220 -102 217 -6 -1 -10 4 -9 11 3 29 -79 120 -169 186 -124 92 -278
141 -434 139 -53 -1 -105 -3 -116 -5z m453 -330 c41 -29 52 -66 52 -177 0
-104 0 -105 25 -111 39 -10 66 -62 63 -121 -2 -31 -8 -50 -15 -51 -7 -1 -26
-2 -43 -3 l-30 -1 0 -168 c0 -134 -3 -172 -15 -189 -9 -13 -22 -20 -30 -17 -8
4 -16 2 -16 -2 -1 -5 -3 -25 -5 -44 -6 -54 -11 -60 -48 -60 -58 0 -66 7 -66
61 l0 49 -205 0 -205 0 0 -50 c0 -48 -1 -49 -34 -55 -18 -4 -44 -5 -57 -3 -21
3 -24 9 -27 56 -3 43 -6 52 -22 52 -34 0 -40 33 -40 204 l0 166 -32 0 c-51 0
-62 12 -60 65 1 26 8 56 14 68 7 12 11 25 10 29 -1 5 1 7 6 6 4 -1 19 4 35 10
l27 12 0 111 0 111 34 34 34 34 314 0 c268 0 317 -2 336 -16z"/>
<path d="M855 1630 c-50 -21 -60 -48 -63 -177 l-4 -123 306 0 306 0 0 113 c0
121 -12 156 -62 183 -27 15 -449 19 -483 4z"/>
</g>
</svg>
